<svg version="1.1" xmlns="http://www.w3.org/2000/svg" xmlns:xlink="http://www.w3.org/1999/xlink" width="1227" height="667"><defs/><g><text fill="#eeeeee" stroke="none" font-family="Arial" font-size="24px" font-style="normal" font-weight="normal" text-decoration="none" x="0" y="0">UNREGISTERED</text><text fill="#eeeeee" stroke="none" font-family="Arial" font-size="24px" font-style="normal" font-weight="normal" text-decoration="none" x="0" y="30">UNREGISTERED</text><text fill="#eeeeee" stroke="none" font-family="Arial" font-size="24px" font-style="normal" font-weight="normal" text-decoration="none" x="0" y="60">UNREGISTERED</text><text fill="#eeeeee" stroke="none" font-family="Arial" font-size="24px" font-style="normal" font-weight="normal" text-decoration="none" x="0" y="90">UNREGISTERED</text><text fill="#eeeeee" stroke="none" font-family="Arial" font-size="24px" font-style="normal" font-weight="normal" text-decoration="none" x="0" y="120">UNREGISTERED</text><text fill="#eeeeee" stroke="none" font-family="Arial" font-size="24px" font-style="normal" font-weight="normal" text-decoration="none" x="0" y="150">UNREGISTERED</text><text fill="#eeeeee" stroke="none" font-family="Arial" font-size="24px" font-style="normal" font-weight="normal" text-decoration="none" x="0" y="180">UNREGISTERED</text><text fill="#eeeeee" stroke="none" font-family="Arial" font-size="24px" font-style="normal" font-weight="normal" text-decoration="none" x="0" y="210">UNREGISTERED</text><text fill="#eeeeee" stroke="none" font-family="Arial" font-size="24px" font-style="normal" font-weight="normal" text-decoration="none" x="0" y="240">UNREGISTERED</text><text fill="#eeeeee" stroke="none" font-family="Arial" font-size="24px" font-style="normal" font-weight="normal" text-decoration="none" x="0" y="270">UNREGISTERED</text><text fill="#eeeeee" stroke="none" font-family="Arial" font-size="24px" font-style="normal" font-weight="normal" text-decoration="none" x="0" y="300">UNREGISTERED</text><text fill="#eeeeee" stroke="none" font-family="Arial" font-size="24px" font-style="normal" font-weight="normal" text-decoration="none" x="0" y="330">UNREGISTERED</text><text fill="#eeeeee" stroke="none" font-family="Arial" font-size="24px" font-style="normal" font-weight="normal" text-decoration="none" x="0" y="360">UNREGISTERED</text><text fill="#eeeeee" stroke="none" font-family="Arial" font-size="24px" font-style="normal" font-weight="normal" text-decoration="none" x="0" y="390">UNREGISTERED</text><text fill="#eeeeee" stroke="none" font-family="Arial" font-size="24px" font-style="normal" font-weight="normal" text-decoration="none" x="0" y="420">UNREGISTERED</text><text fill="#eeeeee" stroke="none" font-family="Arial" font-size="24px" font-style="normal" font-weight="normal" text-decoration="none" x="0" y="450">UNREGISTERED</text><text fill="#eeeeee" stroke="none" font-family="Arial" font-size="24px" font-style="normal" font-weight="normal" text-decoration="none" x="0" y="480">UNREGISTERED</text><text fill="#eeeeee" stroke="none" font-family="Arial" font-size="24px" font-style="normal" font-weight="normal" text-decoration="none" x="0" y="510">UNREGISTERED</text><text fill="#eeeeee" stroke="none" font-family="Arial" font-size="24px" font-style="normal" font-weight="normal" text-decoration="none" x="0" y="540">UNREGISTERED</text><text fill="#eeeeee" stroke="none" font-family="Arial" font-size="24px" font-style="normal" font-weight="normal" text-decoration="none" x="0" y="570">UNREGISTERED</text><text fill="#eeeeee" stroke="none" font-family="Arial" font-size="24px" font-style="normal" font-weight="normal" text-decoration="none" x="0" y="600">UNREGISTERED</text><text fill="#eeeeee" stroke="none" font-family="Arial" font-size="24px" font-style="normal" font-weight="normal" text-decoration="none" x="0" y="630">UNREGISTERED</text><text fill="#eeeeee" stroke="none" font-family="Arial" font-size="24px" font-style="normal" font-weight="normal" text-decoration="none" x="0" y="660">UNREGISTERED</text><text fill="#eeeeee" stroke="none" font-family="Arial" font-size="24px" font-style="normal" font-weight="normal" text-decoration="none" x="200" y="0">UNREGISTERED</text><text fill="#eeeeee" stroke="none" font-family="Arial" font-size="24px" font-style="normal" font-weight="normal" text-decoration="none" x="200" y="30">UNREGISTERED</text><text fill="#eeeeee" stroke="none" font-family="Arial" font-size="24px" font-style="normal" font-weight="normal" text-decoration="none" x="200" y="60">UNREGISTERED</text><text fill="#eeeeee" stroke="none" font-family="Arial" font-size="24px" font-style="normal" font-weight="normal" text-decoration="none" x="200" y="90">UNREGISTERED</text><text fill="#eeeeee" stroke="none" font-family="Arial" font-size="24px" font-style="normal" font-weight="normal" text-decoration="none" x="200" y="120">UNREGISTERED</text><text fill="#eeeeee" stroke="none" font-family="Arial" font-size="24px" font-style="normal" font-weight="normal" text-decoration="none" x="200" y="150">UNREGISTERED</text><text fill="#eeeeee" stroke="none" font-family="Arial" font-size="24px" font-style="normal" font-weight="normal" text-decoration="none" x="200" y="180">UNREGISTERED</text><text fill="#eeeeee" stroke="none" font-family="Arial" font-size="24px" font-style="normal" font-weight="normal" text-decoration="none" x="200" y="210">UNREGISTERED</text><text fill="#eeeeee" stroke="none" font-family="Arial" font-size="24px" font-style="normal" font-weight="normal" text-decoration="none" x="200" y="240">UNREGISTERED</text><text fill="#eeeeee" stroke="none" font-family="Arial" font-size="24px" font-style="normal" font-weight="normal" text-decoration="none" x="200" y="270">UNREGISTERED</text><text fill="#eeeeee" stroke="none" font-family="Arial" font-size="24px" font-style="normal" font-weight="normal" text-decoration="none" x="200" y="300">UNREGISTERED</text><text fill="#eeeeee" stroke="none" font-family="Arial" font-size="24px" font-style="normal" font-weight="normal" text-decoration="none" x="200" y="330">UNREGISTERED</text><text fill="#eeeeee" stroke="none" font-family="Arial" font-size="24px" font-style="normal" font-weight="normal" text-decoration="none" x="200" y="360">UNREGISTERED</text><text fill="#eeeeee" stroke="none" font-family="Arial" font-size="24px" font-style="normal" font-weight="normal" text-decoration="none" x="200" y="390">UNREGISTERED</text><text fill="#eeeeee" stroke="none" font-family="Arial" font-size="24px" font-style="normal" font-weight="normal" text-decoration="none" x="200" y="420">UNREGISTERED</text><text fill="#eeeeee" stroke="none" font-family="Arial" font-size="24px" font-style="normal" font-weight="normal" text-decoration="none" x="200" y="450">UNREGISTERED</text><text fill="#eeeeee" stroke="none" font-family="Arial" font-size="24px" font-style="normal" font-weight="normal" text-decoration="none" x="200" y="480">UNREGISTERED</text><text fill="#eeeeee" stroke="none" font-family="Arial" font-size="24px" font-style="normal" font-weight="normal" text-decoration="none" x="200" y="510">UNREGISTERED</text><text fill="#eeeeee" stroke="none" font-family="Arial" font-size="24px" font-style="normal" font-weight="normal" text-decoration="none" x="200" y="540">UNREGISTERED</text><text fill="#eeeeee" stroke="none" font-family="Arial" font-size="24px" font-style="normal" font-weight="normal" text-decoration="none" x="200" y="570">UNREGISTERED</text><text fill="#eeeeee" stroke="none" font-family="Arial" font-size="24px" font-style="normal" font-weight="normal" text-decoration="none" x="200" y="600">UNREGISTERED</text><text fill="#eeeeee" stroke="none" font-family="Arial" font-size="24px" font-style="normal" font-weight="normal" text-decoration="none" x="200" y="630">UNREGISTERED</text><text fill="#eeeeee" stroke="none" font-family="Arial" font-size="24px" font-style="normal" font-weight="normal" text-decoration="none" x="200" y="660">UNREGISTERED</text><text fill="#eeeeee" stroke="none" font-family="Arial" font-size="24px" font-style="normal" font-weight="normal" text-decoration="none" x="400" y="0">UNREGISTERED</text><text fill="#eeeeee" stroke="none" font-family="Arial" font-size="24px" font-style="normal" font-weight="normal" text-decoration="none" x="400" y="30">UNREGISTERED</text><text fill="#eeeeee" stroke="none" font-family="Arial" font-size="24px" font-style="normal" font-weight="normal" text-decoration="none" x="400" y="60">UNREGISTERED</text><text fill="#eeeeee" stroke="none" font-family="Arial" font-size="24px" font-style="normal" font-weight="normal" text-decoration="none" x="400" y="90">UNREGISTERED</text><text fill="#eeeeee" stroke="none" font-family="Arial" font-size="24px" font-style="normal" font-weight="normal" text-decoration="none" x="400" y="120">UNREGISTERED</text><text fill="#eeeeee" stroke="none" font-family="Arial" font-size="24px" font-style="normal" font-weight="normal" text-decoration="none" x="400" y="150">UNREGISTERED</text><text fill="#eeeeee" stroke="none" font-family="Arial" font-size="24px" font-style="normal" font-weight="normal" text-decoration="none" x="400" y="180">UNREGISTERED</text><text fill="#eeeeee" stroke="none" font-family="Arial" font-size="24px" font-style="normal" font-weight="normal" text-decoration="none" x="400" y="210">UNREGISTERED</text><text fill="#eeeeee" stroke="none" font-family="Arial" font-size="24px" font-style="normal" font-weight="normal" text-decoration="none" x="400" y="240">UNREGISTERED</text><text fill="#eeeeee" stroke="none" font-family="Arial" font-size="24px" font-style="normal" font-weight="normal" text-decoration="none" x="400" y="270">UNREGISTERED</text><text fill="#eeeeee" stroke="none" font-family="Arial" font-size="24px" font-style="normal" font-weight="normal" text-decoration="none" x="400" y="300">UNREGISTERED</text><text fill="#eeeeee" stroke="none" font-family="Arial" font-size="24px" font-style="normal" font-weight="normal" text-decoration="none" x="400" y="330">UNREGISTERED</text><text fill="#eeeeee" stroke="none" font-family="Arial" font-size="24px" font-style="normal" font-weight="normal" text-decoration="none" x="400" y="360">UNREGISTERED</text><text fill="#eeeeee" stroke="none" font-family="Arial" font-size="24px" font-style="normal" font-weight="normal" text-decoration="none" x="400" y="390">UNREGISTERED</text><text fill="#eeeeee" stroke="none" font-family="Arial" font-size="24px" font-style="normal" font-weight="normal" text-decoration="none" x="400" y="420">UNREGISTERED</text><text fill="#eeeeee" stroke="none" font-family="Arial" font-size="24px" font-style="normal" font-weight="normal" text-decoration="none" x="400" y="450">UNREGISTERED</text><text fill="#eeeeee" stroke="none" font-family="Arial" font-size="24px" font-style="normal" font-weight="normal" text-decoration="none" x="400" y="480">UNREGISTERED</text><text fill="#eeeeee" stroke="none" font-family="Arial" font-size="24px" font-style="normal" font-weight="normal" text-decoration="none" x="400" y="510">UNREGISTERED</text><text fill="#eeeeee" stroke="none" font-family="Arial" font-size="24px" font-style="normal" font-weight="normal" text-decoration="none" x="400" y="540">UNREGISTERED</text><text fill="#eeeeee" stroke="none" font-family="Arial" font-size="24px" font-style="normal" font-weight="normal" text-decoration="none" x="400" y="570">UNREGISTERED</text><text fill="#eeeeee" stroke="none" font-family="Arial" font-size="24px" font-style="normal" font-weight="normal" text-decoration="none" x="400" y="600">UNREGISTERED</text><text fill="#eeeeee" stroke="none" font-family="Arial" font-size="24px" font-style="normal" font-weight="normal" text-decoration="none" x="400" y="630">UNREGISTERED</text><text fill="#eeeeee" stroke="none" font-family="Arial" font-size="24px" font-style="normal" font-weight="normal" text-decoration="none" x="400" y="660">UNREGISTERED</text><text fill="#eeeeee" stroke="none" font-family="Arial" font-size="24px" font-style="normal" font-weight="normal" text-decoration="none" x="600" y="0">UNREGISTERED</text><text fill="#eeeeee" stroke="none" font-family="Arial" font-size="24px" font-style="normal" font-weight="normal" text-decoration="none" x="600" y="30">UNREGISTERED</text><text fill="#eeeeee" stroke="none" font-family="Arial" font-size="24px" font-style="normal" font-weight="normal" text-decoration="none" x="600" y="60">UNREGISTERED</text><text fill="#eeeeee" stroke="none" font-family="Arial" font-size="24px" font-style="normal" font-weight="normal" text-decoration="none" x="600" y="90">UNREGISTERED</text><text fill="#eeeeee" stroke="none" font-family="Arial" font-size="24px" font-style="normal" font-weight="normal" text-decoration="none" x="600" y="120">UNREGISTERED</text><text fill="#eeeeee" stroke="none" font-family="Arial" font-size="24px" font-style="normal" font-weight="normal" text-decoration="none" x="600" y="150">UNREGISTERED</text><text fill="#eeeeee" stroke="none" font-family="Arial" font-size="24px" font-style="normal" font-weight="normal" text-decoration="none" x="600" y="180">UNREGISTERED</text><text fill="#eeeeee" stroke="none" font-family="Arial" font-size="24px" font-style="normal" font-weight="normal" text-decoration="none" x="600" y="210">UNREGISTERED</text><text fill="#eeeeee" stroke="none" font-family="Arial" font-size="24px" font-style="normal" font-weight="normal" text-decoration="none" x="600" y="240">UNREGISTERED</text><text fill="#eeeeee" stroke="none" font-family="Arial" font-size="24px" font-style="normal" font-weight="normal" text-decoration="none" x="600" y="270">UNREGISTERED</text><text fill="#eeeeee" stroke="none" font-family="Arial" font-size="24px" font-style="normal" font-weight="normal" text-decoration="none" x="600" y="300">UNREGISTERED</text><text fill="#eeeeee" stroke="none" font-family="Arial" font-size="24px" font-style="normal" font-weight="normal" text-decoration="none" x="600" y="330">UNREGISTERED</text><text fill="#eeeeee" stroke="none" font-family="Arial" font-size="24px" font-style="normal" font-weight="normal" text-decoration="none" x="600" y="360">UNREGISTERED</text><text fill="#eeeeee" stroke="none" font-family="Arial" font-size="24px" font-style="normal" font-weight="normal" text-decoration="none" x="600" y="390">UNREGISTERED</text><text fill="#eeeeee" stroke="none" font-family="Arial" font-size="24px" font-style="normal" font-weight="normal" text-decoration="none" x="600" y="420">UNREGISTERED</text><text fill="#eeeeee" stroke="none" font-family="Arial" font-size="24px" font-style="normal" font-weight="normal" text-decoration="none" x="600" y="450">UNREGISTERED</text><text fill="#eeeeee" stroke="none" font-family="Arial" font-size="24px" font-style="normal" font-weight="normal" text-decoration="none" x="600" y="480">UNREGISTERED</text><text fill="#eeeeee" stroke="none" font-family="Arial" font-size="24px" font-style="normal" font-weight="normal" text-decoration="none" x="600" y="510">UNREGISTERED</text><text fill="#eeeeee" stroke="none" font-family="Arial" font-size="24px" font-style="normal" font-weight="normal" text-decoration="none" x="600" y="540">UNREGISTERED</text><text fill="#eeeeee" stroke="none" font-family="Arial" font-size="24px" font-style="normal" font-weight="normal" text-decoration="none" x="600" y="570">UNREGISTERED</text><text fill="#eeeeee" stroke="none" font-family="Arial" font-size="24px" font-style="normal" font-weight="normal" text-decoration="none" x="600" y="600">UNREGISTERED</text><text fill="#eeeeee" stroke="none" font-family="Arial" font-size="24px" font-style="normal" font-weight="normal" text-decoration="none" x="600" y="630">UNREGISTERED</text><text fill="#eeeeee" stroke="none" font-family="Arial" font-size="24px" font-style="normal" font-weight="normal" text-decoration="none" x="600" y="660">UNREGISTERED</text><text fill="#eeeeee" stroke="none" font-family="Arial" font-size="24px" font-style="normal" font-weight="normal" text-decoration="none" x="800" y="0">UNREGISTERED</text><text fill="#eeeeee" stroke="none" font-family="Arial" font-size="24px" font-style="normal" font-weight="normal" text-decoration="none" x="800" y="30">UNREGISTERED</text><text fill="#eeeeee" stroke="none" font-family="Arial" font-size="24px" font-style="normal" font-weight="normal" text-decoration="none" x="800" y="60">UNREGISTERED</text><text fill="#eeeeee" stroke="none" font-family="Arial" font-size="24px" font-style="normal" font-weight="normal" text-decoration="none" x="800" y="90">UNREGISTERED</text><text fill="#eeeeee" stroke="none" font-family="Arial" font-size="24px" font-style="normal" font-weight="normal" text-decoration="none" x="800" y="120">UNREGISTERED</text><text fill="#eeeeee" stroke="none" font-family="Arial" font-size="24px" font-style="normal" font-weight="normal" text-decoration="none" x="800" y="150">UNREGISTERED</text><text fill="#eeeeee" stroke="none" font-family="Arial" font-size="24px" font-style="normal" font-weight="normal" text-decoration="none" x="800" y="180">UNREGISTERED</text><text fill="#eeeeee" stroke="none" font-family="Arial" font-size="24px" font-style="normal" font-weight="normal" text-decoration="none" x="800" y="210">UNREGISTERED</text><text fill="#eeeeee" stroke="none" font-family="Arial" font-size="24px" font-style="normal" font-weight="normal" text-decoration="none" x="800" y="240">UNREGISTERED</text><text fill="#eeeeee" stroke="none" font-family="Arial" font-size="24px" font-style="normal" font-weight="normal" text-decoration="none" x="800" y="270">UNREGISTERED</text><text fill="#eeeeee" stroke="none" font-family="Arial" font-size="24px" font-style="normal" font-weight="normal" text-decoration="none" x="800" y="300">UNREGISTERED</text><text fill="#eeeeee" stroke="none" font-family="Arial" font-size="24px" font-style="normal" font-weight="normal" text-decoration="none" x="800" y="330">UNREGISTERED</text><text fill="#eeeeee" stroke="none" font-family="Arial" font-size="24px" font-style="normal" font-weight="normal" text-decoration="none" x="800" y="360">UNREGISTERED</text><text fill="#eeeeee" stroke="none" font-family="Arial" font-size="24px" font-style="normal" font-weight="normal" text-decoration="none" x="800" y="390">UNREGISTERED</text><text fill="#eeeeee" stroke="none" font-family="Arial" font-size="24px" font-style="normal" font-weight="normal" text-decoration="none" x="800" y="420">UNREGISTERED</text><text fill="#eeeeee" stroke="none" font-family="Arial" font-size="24px" font-style="normal" font-weight="normal" text-decoration="none" x="800" y="450">UNREGISTERED</text><text fill="#eeeeee" stroke="none" font-family="Arial" font-size="24px" font-style="normal" font-weight="normal" text-decoration="none" x="800" y="480">UNREGISTERED</text><text fill="#eeeeee" stroke="none" font-family="Arial" font-size="24px" font-style="normal" font-weight="normal" text-decoration="none" x="800" y="510">UNREGISTERED</text><text fill="#eeeeee" stroke="none" font-family="Arial" font-size="24px" font-style="normal" font-weight="normal" text-decoration="none" x="800" y="540">UNREGISTERED</text><text fill="#eeeeee" stroke="none" font-family="Arial" font-size="24px" font-style="normal" font-weight="normal" text-decoration="none" x="800" y="570">UNREGISTERED</text><text fill="#eeeeee" stroke="none" font-family="Arial" font-size="24px" font-style="normal" font-weight="normal" text-decoration="none" x="800" y="600">UNREGISTERED</text><text fill="#eeeeee" stroke="none" font-family="Arial" font-size="24px" font-style="normal" font-weight="normal" text-decoration="none" x="800" y="630">UNREGISTERED</text><text fill="#eeeeee" stroke="none" font-family="Arial" font-size="24px" font-style="normal" font-weight="normal" text-decoration="none" x="800" y="660">UNREGISTERED</text><text fill="#eeeeee" stroke="none" font-family="Arial" font-size="24px" font-style="normal" font-weight="normal" text-decoration="none" x="1000" y="0">UNREGISTERED</text><text fill="#eeeeee" stroke="none" font-family="Arial" font-size="24px" font-style="normal" font-weight="normal" text-decoration="none" x="1000" y="30">UNREGISTERED</text><text fill="#eeeeee" stroke="none" font-family="Arial" font-size="24px" font-style="normal" font-weight="normal" text-decoration="none" x="1000" y="60">UNREGISTERED</text><text fill="#eeeeee" stroke="none" font-family="Arial" font-size="24px" font-style="normal" font-weight="normal" text-decoration="none" x="1000" y="90">UNREGISTERED</text><text fill="#eeeeee" stroke="none" font-family="Arial" font-size="24px" font-style="normal" font-weight="normal" text-decoration="none" x="1000" y="120">UNREGISTERED</text><text fill="#eeeeee" stroke="none" font-family="Arial" font-size="24px" font-style="normal" font-weight="normal" text-decoration="none" x="1000" y="150">UNREGISTERED</text><text fill="#eeeeee" stroke="none" font-family="Arial" font-size="24px" font-style="normal" font-weight="normal" text-decoration="none" x="1000" y="180">UNREGISTERED</text><text fill="#eeeeee" stroke="none" font-family="Arial" font-size="24px" font-style="normal" font-weight="normal" text-decoration="none" x="1000" y="210">UNREGISTERED</text><text fill="#eeeeee" stroke="none" font-family="Arial" font-size="24px" font-style="normal" font-weight="normal" text-decoration="none" x="1000" y="240">UNREGISTERED</text><text fill="#eeeeee" stroke="none" font-family="Arial" font-size="24px" font-style="normal" font-weight="normal" text-decoration="none" x="1000" y="270">UNREGISTERED</text><text fill="#eeeeee" stroke="none" font-family="Arial" font-size="24px" font-style="normal" font-weight="normal" text-decoration="none" x="1000" y="300">UNREGISTERED</text><text fill="#eeeeee" stroke="none" font-family="Arial" font-size="24px" font-style="normal" font-weight="normal" text-decoration="none" x="1000" y="330">UNREGISTERED</text><text fill="#eeeeee" stroke="none" font-family="Arial" font-size="24px" font-style="normal" font-weight="normal" text-decoration="none" x="1000" y="360">UNREGISTERED</text><text fill="#eeeeee" stroke="none" font-family="Arial" font-size="24px" font-style="normal" font-weight="normal" text-decoration="none" x="1000" y="390">UNREGISTERED</text><text fill="#eeeeee" stroke="none" font-family="Arial" font-size="24px" font-style="normal" font-weight="normal" text-decoration="none" x="1000" y="420">UNREGISTERED</text><text fill="#eeeeee" stroke="none" font-family="Arial" font-size="24px" font-style="normal" font-weight="normal" text-decoration="none" x="1000" y="450">UNREGISTERED</text><text fill="#eeeeee" stroke="none" font-family="Arial" font-size="24px" font-style="normal" font-weight="normal" text-decoration="none" x="1000" y="480">UNREGISTERED</text><text fill="#eeeeee" stroke="none" font-family="Arial" font-size="24px" font-style="normal" font-weight="normal" text-decoration="none" x="1000" y="510">UNREGISTERED</text><text fill="#eeeeee" stroke="none" font-family="Arial" font-size="24px" font-style="normal" font-weight="normal" text-decoration="none" x="1000" y="540">UNREGISTERED</text><text fill="#eeeeee" stroke="none" font-family="Arial" font-size="24px" font-style="normal" font-weight="normal" text-decoration="none" x="1000" y="570">UNREGISTERED</text><text fill="#eeeeee" stroke="none" font-family="Arial" font-size="24px" font-style="normal" font-weight="normal" text-decoration="none" x="1000" y="600">UNREGISTERED</text><text fill="#eeeeee" stroke="none" font-family="Arial" font-size="24px" font-style="normal" font-weight="normal" text-decoration="none" x="1000" y="630">UNREGISTERED</text><text fill="#eeeeee" stroke="none" font-family="Arial" font-size="24px" font-style="normal" font-weight="normal" text-decoration="none" x="1000" y="660">UNREGISTERED</text><text fill="#eeeeee" stroke="none" font-family="Arial" font-size="24px" font-style="normal" font-weight="normal" text-decoration="none" x="1200" y="0">UNREGISTERED</text><text fill="#eeeeee" stroke="none" font-family="Arial" font-size="24px" font-style="normal" font-weight="normal" text-decoration="none" x="1200" y="30">UNREGISTERED</text><text fill="#eeeeee" stroke="none" font-family="Arial" font-size="24px" font-style="normal" font-weight="normal" text-decoration="none" x="1200" y="60">UNREGISTERED</text><text fill="#eeeeee" stroke="none" font-family="Arial" font-size="24px" font-style="normal" font-weight="normal" text-decoration="none" x="1200" y="90">UNREGISTERED</text><text fill="#eeeeee" stroke="none" font-family="Arial" font-size="24px" font-style="normal" font-weight="normal" text-decoration="none" x="1200" y="120">UNREGISTERED</text><text fill="#eeeeee" stroke="none" font-family="Arial" font-size="24px" font-style="normal" font-weight="normal" text-decoration="none" x="1200" y="150">UNREGISTERED</text><text fill="#eeeeee" stroke="none" font-family="Arial" font-size="24px" font-style="normal" font-weight="normal" text-decoration="none" x="1200" y="180">UNREGISTERED</text><text fill="#eeeeee" stroke="none" font-family="Arial" font-size="24px" font-style="normal" font-weight="normal" text-decoration="none" x="1200" y="210">UNREGISTERED</text><text fill="#eeeeee" stroke="none" font-family="Arial" font-size="24px" font-style="normal" font-weight="normal" text-decoration="none" x="1200" y="240">UNREGISTERED</text><text fill="#eeeeee" stroke="none" font-family="Arial" font-size="24px" font-style="normal" font-weight="normal" text-decoration="none" x="1200" y="270">UNREGISTERED</text><text fill="#eeeeee" stroke="none" font-family="Arial" font-size="24px" font-style="normal" font-weight="normal" text-decoration="none" x="1200" y="300">UNREGISTERED</text><text fill="#eeeeee" stroke="none" font-family="Arial" font-size="24px" font-style="normal" font-weight="normal" text-decoration="none" x="1200" y="330">UNREGISTERED</text><text fill="#eeeeee" stroke="none" font-family="Arial" font-size="24px" font-style="normal" font-weight="normal" text-decoration="none" x="1200" y="360">UNREGISTERED</text><text fill="#eeeeee" stroke="none" font-family="Arial" font-size="24px" font-style="normal" font-weight="normal" text-decoration="none" x="1200" y="390">UNREGISTERED</text><text fill="#eeeeee" stroke="none" font-family="Arial" font-size="24px" font-style="normal" font-weight="normal" text-decoration="none" x="1200" y="420">UNREGISTERED</text><text fill="#eeeeee" stroke="none" font-family="Arial" font-size="24px" font-style="normal" font-weight="normal" text-decoration="none" x="1200" y="450">UNREGISTERED</text><text fill="#eeeeee" stroke="none" font-family="Arial" font-size="24px" font-style="normal" font-weight="normal" text-decoration="none" x="1200" y="480">UNREGISTERED</text><text fill="#eeeeee" stroke="none" font-family="Arial" font-size="24px" font-style="normal" font-weight="normal" text-decoration="none" x="1200" y="510">UNREGISTERED</text><text fill="#eeeeee" stroke="none" font-family="Arial" font-size="24px" font-style="normal" font-weight="normal" text-decoration="none" x="1200" y="540">UNREGISTERED</text><text fill="#eeeeee" stroke="none" font-family="Arial" font-size="24px" font-style="normal" font-weight="normal" text-decoration="none" x="1200" y="570">UNREGISTERED</text><text fill="#eeeeee" stroke="none" font-family="Arial" font-size="24px" font-style="normal" font-weight="normal" text-decoration="none" x="1200" y="600">UNREGISTERED</text><text fill="#eeeeee" stroke="none" font-family="Arial" font-size="24px" font-style="normal" font-weight="normal" text-decoration="none" x="1200" y="630">UNREGISTERED</text><text fill="#eeeeee" stroke="none" font-family="Arial" font-size="24px" font-style="normal" font-weight="normal" text-decoration="none" x="1200" y="660">UNREGISTERED</text><g transform="translate(-22,-70) scale(1,1)"><rect fill="#C0C0C0" stroke="none" x="167" y="87" width="919" height="647" opacity="0.2"/></g><g transform="translate(-22,-70) scale(1,1)"><rect fill="#ffffff" stroke="none" x="160" y="80" width="919" height="647"/></g><g transform="translate(-22,-70) scale(1,1)"><path fill="none" stroke="#000000" d="M 160 80 L 1079 80 L 1079 727 L 160 727 L 160 80 Z Z" stroke-miterlimit="10"/></g><g transform="translate(-22,-70) scale(1,1)"><g><path fill="none" stroke="none"/><text fill="#000000" stroke="none" font-family="Arial" font-size="13px" font-style="normal" font-weight="bold" text-decoration="none" x="568.556884765625" y="99.5">Application Name</text></g></g><g transform="translate(-22,-70) scale(1,1)"><path fill="#C0C0C0" stroke="none" d="M 263 234.5 C 263 219.31216799999999 292.9969184 207 330 207 C 367.0030816 207 397 219.31216799999999 397 234.5 C 397 249.68783200000001 367.0030816 262 330 262 C 292.9969184 262 263 249.68783200000001 263 234.5 Z" opacity="0.2"/></g><g transform="translate(-22,-70) scale(1,1)"><path fill="#ffffff" stroke="none" d="M 256 227.5 C 256 212.31216799999999 285.9969184 200 323 200 C 360.0030816 200 390 212.31216799999999 390 227.5 C 390 242.68783200000001 360.0030816 255 323 255 C 285.9969184 255 256 242.68783200000001 256 227.5 Z"/></g><g transform="translate(-22,-70) scale(1,1)"><path fill="none" stroke="#000000" d="M 256 227.5 C 256 212.31216799999999 285.9969184 200 323 200 C 360.0030816 200 390 212.31216799999999 390 227.5 C 390 242.68783200000001 360.0030816 255 323 255 C 285.9969184 255 256 242.68783200000001 256 227.5 Z" stroke-miterlimit="10"/></g><g transform="translate(-22,-70) scale(1,1)"><g><path fill="none" stroke="none"/><text fill="#000000" stroke="none" font-family="Arial" font-size="13px" font-style="normal" font-weight="bold" text-decoration="none" x="282.654296875" y="234.5">Visualize map</text></g></g><g transform="translate(-22,-70) scale(1,1)"><path fill="#C0C0C0" stroke="none" d="M 223 538.5 C 223 518.8938896 285.2324128 503 362 503 C 438.7675872 503 501 518.8938896 501 538.5 C 501 558.1061104 438.7675872 574 362 574 C 285.2324128 574 223 558.1061104 223 538.5 Z" opacity="0.2"/></g><g transform="translate(-22,-70) scale(1,1)"><path fill="#ffffff" stroke="none" d="M 216 531.5 C 216 511.8938896 278.2324128 496 355 496 C 431.7675872 496 494 511.8938896 494 531.5 C 494 551.1061104 431.7675872 567 355 567 C 278.2324128 567 216 551.1061104 216 531.5 Z"/></g><g transform="translate(-22,-70) scale(1,1)"><path fill="none" stroke="#000000" d="M 216 531.5 C 216 511.8938896 278.2324128 496 355 496 C 431.7675872 496 494 511.8938896 494 531.5 C 494 551.1061104 431.7675872 567 355 567 C 278.2324128 567 216 551.1061104 216 531.5 Z" stroke-miterlimit="10"/></g><g transform="translate(-22,-70) scale(1,1)"><g><path fill="none" stroke="none"/><text fill="#000000" stroke="none" font-family="Arial" font-size="13px" font-style="normal" font-weight="bold" text-decoration="none" x="268.656005859375" y="538.5">Compute optimal delivery tour</text></g></g><g transform="translate(-22,-70) scale(1,1)"><path fill="#C0C0C0" stroke="none" d="M 503 654.5 C 503 628.266472 539.4887888 607 584.5 607 C 629.5112112 607 666 628.266472 666 654.5 C 666 680.733528 629.5112112 702 584.5 702 C 539.4887888 702 503 680.733528 503 654.5 Z" opacity="0.2"/></g><g transform="translate(-22,-70) scale(1,1)"><path fill="#ffffff" stroke="none" d="M 496 647.5 C 496 621.266472 532.4887888 600 577.5 600 C 622.5112112 600 659 621.266472 659 647.5 C 659 673.733528 622.5112112 695 577.5 695 C 532.4887888 695 496 673.733528 496 647.5 Z"/></g><g transform="translate(-22,-70) scale(1,1)"><path fill="none" stroke="#000000" d="M 496 647.5 C 496 621.266472 532.4887888 600 577.5 600 C 622.5112112 600 659 621.266472 659 647.5 C 659 673.733528 622.5112112 695 577.5 695 C 532.4887888 695 496 673.733528 496 647.5 Z" stroke-miterlimit="10"/></g><g transform="translate(-22,-70) scale(1,1)"><g><path fill="none" stroke="none"/><text fill="#000000" stroke="none" font-family="Arial" font-size="13px" font-style="normal" font-weight="bold" text-decoration="none" x="528.36279296875" y="654.5">Display schedule</text></g></g><g transform="translate(-22,-70) scale(1,1)"><path fill="#C0C0C0" stroke="none" d="M 231 378.5 C 231 363.312168 273.532944 351 326 351 C 378.467056 351 421 363.312168 421 378.5 C 421 393.687832 378.467056 406 326 406 C 273.532944 406 231 393.687832 231 378.5 Z" opacity="0.2"/></g><g transform="translate(-22,-70) scale(1,1)"><path fill="#ffffff" stroke="none" d="M 224 371.5 C 224 356.312168 266.532944 344 319 344 C 371.467056 344 414 356.312168 414 371.5 C 414 386.687832 371.467056 399 319 399 C 266.532944 399 224 386.687832 224 371.5 Z"/></g><g transform="translate(-22,-70) scale(1,1)"><path fill="none" stroke="#000000" d="M 224 371.5 C 224 356.312168 266.532944 344 319 344 C 371.467056 344 414 356.312168 414 371.5 C 414 386.687832 371.467056 399 319 399 C 266.532944 399 224 386.687832 224 371.5 Z" stroke-miterlimit="10"/></g><g transform="translate(-22,-70) scale(1,1)"><g><path fill="none" stroke="none"/><text fill="#000000" stroke="none" font-family="Arial" font-size="13px" font-style="normal" font-weight="bold" text-decoration="none" x="261.19189453125" y="378.5">Upload delivery tour</text></g></g><g transform="translate(-22,-70) scale(1,1)"><path fill="#C0C0C0" stroke="none" d="M 503 382.5 C 503 360.6847504 544.8613712 343 596.5 343 C 648.1386288 343 690 360.6847504 690 382.5 C 690 404.3152496 648.1386288 422 596.5 422 C 544.8613712 422 503 404.3152496 503 382.5 Z" opacity="0.2"/></g><g transform="translate(-22,-70) scale(1,1)"><path fill="#ffffff" stroke="none" d="M 496 375.5 C 496 353.6847504 537.8613712 336 589.5 336 C 641.1386288 336 683 353.6847504 683 375.5 C 683 397.3152496 641.1386288 415 589.5 415 C 537.8613712 415 496 397.3152496 496 375.5 Z"/></g><g transform="translate(-22,-70) scale(1,1)"><path fill="none" stroke="#000000" d="M 496 375.5 C 496 353.6847504 537.8613712 336 589.5 336 C 641.1386288 336 683 353.6847504 683 375.5 C 683 397.3152496 641.1386288 415 589.5 415 C 537.8613712 415 496 397.3152496 496 375.5 Z" stroke-miterlimit="10"/></g><g transform="translate(-22,-70) scale(1,1)"><g><path fill="none" stroke="none"/><text fill="#000000" stroke="none" font-family="Arial" font-size="13px" font-style="normal" font-weight="bold" text-decoration="none" x="533.1455078125" y="382.5">Modify delivery tour</text></g></g><g transform="translate(-22,-70) scale(1,1)"><path fill="#C0C0C0" stroke="none" d="M 807 494.5 C 807 477.1030288 847.9659408 463 898.5 463 C 949.0340592 463 990 477.1030288 990 494.5 C 990 511.8969712 949.0340592 526 898.5 526 C 847.9659408 526 807 511.8969712 807 494.5 Z" opacity="0.2"/></g><g transform="translate(-22,-70) scale(1,1)"><path fill="#ffffff" stroke="none" d="M 800 487.5 C 800 470.1030288 840.9659408 456 891.5 456 C 942.0340592 456 983 470.1030288 983 487.5 C 983 504.8969712 942.0340592 519 891.5 519 C 840.9659408 519 800 504.8969712 800 487.5 Z"/></g><g transform="translate(-22,-70) scale(1,1)"><path fill="none" stroke="#000000" d="M 800 487.5 C 800 470.1030288 840.9659408 456 891.5 456 C 942.0340592 456 983 470.1030288 983 487.5 C 983 504.8969712 942.0340592 519 891.5 519 C 840.9659408 519 800 504.8969712 800 487.5 Z" stroke-miterlimit="10"/></g><g transform="translate(-22,-70) scale(1,1)"><g><path fill="none" stroke="none"/><text fill="#000000" stroke="none" font-family="Arial" font-size="13px" font-style="normal" font-weight="bold" text-decoration="none" x="835.1328125" y="494.5">Suppress a request</text></g></g><g transform="translate(-22,-70) scale(1,1)"><path fill="#C0C0C0" stroke="none" d="M 799 386.5 C 799 362.4756112 848.0248144 343 908.5 343 C 968.9751856 343 1018 362.4756112 1018 386.5 C 1018 410.5243888 968.9751856 430 908.5 430 C 848.0248144 430 799 410.5243888 799 386.5 Z" opacity="0.2"/></g><g transform="translate(-22,-70) scale(1,1)"><path fill="#ffffff" stroke="none" d="M 792 379.5 C 792 355.4756112 841.0248144 336 901.5 336 C 961.9751856 336 1011 355.4756112 1011 379.5 C 1011 403.5243888 961.9751856 423 901.5 423 C 841.0248144 423 792 403.5243888 792 379.5 Z"/></g><g transform="translate(-22,-70) scale(1,1)"><path fill="none" stroke="#000000" d="M 792 379.5 C 792 355.4756112 841.0248144 336 901.5 336 C 961.9751856 336 1011 355.4756112 1011 379.5 C 1011 403.5243888 961.9751856 423 901.5 423 C 841.0248144 423 792 403.5243888 792 379.5 Z" stroke-miterlimit="10"/></g><g transform="translate(-22,-70) scale(1,1)"><g><path fill="none" stroke="none"/><text fill="#000000" stroke="none" font-family="Arial" font-size="13px" font-style="normal" font-weight="bold" text-decoration="none" x="834.656005859375" y="386.5">Undo redo modification</text></g></g><g transform="translate(-22,-70) scale(1,1)"><path fill="#C0C0C0" stroke="none" d="M 527 194.5 C 527 174.8938896 580.5019664 159 646.5 159 C 712.4980336 159 766 174.8938896 766 194.5 C 766 214.1061104 712.4980336 230 646.5 230 C 580.5019664 230 527 214.1061104 527 194.5 Z" opacity="0.2"/></g><g transform="translate(-22,-70) scale(1,1)"><path fill="#ffffff" stroke="none" d="M 520 187.5 C 520 167.8938896 573.5019664 152 639.5 152 C 705.4980336 152 759 167.8938896 759 187.5 C 759 207.1061104 705.4980336 223 639.5 223 C 573.5019664 223 520 207.1061104 520 187.5 Z"/></g><g transform="translate(-22,-70) scale(1,1)"><path fill="none" stroke="#000000" d="M 520 187.5 C 520 167.8938896 573.5019664 152 639.5 152 C 705.4980336 152 759 167.8938896 759 187.5 C 759 207.1061104 705.4980336 223 639.5 223 C 573.5019664 223 520 207.1061104 520 187.5 Z" stroke-miterlimit="10"/></g><g transform="translate(-22,-70) scale(1,1)"><g><path fill="none" stroke="none"/><text fill="#000000" stroke="none" font-family="Arial" font-size="13px" font-style="normal" font-weight="bold" text-decoration="none" x="566.359130859375" y="194.5">Change points' visit order</text></g></g><g transform="translate(-22,-70) scale(1,1)"><path fill="#C0C0C0" stroke="none" d="M 775 270.5 C 775 248.68475039999998 830.0689696 231 898 231 C 965.9310304 231 1021 248.68475039999998 1021 270.5 C 1021 292.3152496 965.9310304 310 898 310 C 830.0689696 310 775 292.3152496 775 270.5 Z" opacity="0.2"/></g><g transform="translate(-22,-70) scale(1,1)"><path fill="#ffffff" stroke="none" d="M 768 263.5 C 768 241.68475039999998 823.0689696 224 891 224 C 958.9310304 224 1014 241.68475039999998 1014 263.5 C 1014 285.3152496 958.9310304 303 891 303 C 823.0689696 303 768 285.3152496 768 263.5 Z"/></g><g transform="translate(-22,-70) scale(1,1)"><path fill="none" stroke="#000000" d="M 768 263.5 C 768 241.68475039999998 823.0689696 224 891 224 C 958.9310304 224 1014 241.68475039999998 1014 263.5 C 1014 285.3152496 958.9310304 303 891 303 C 823.0689696 303 768 285.3152496 768 263.5 Z" stroke-miterlimit="10"/></g><g transform="translate(-22,-70) scale(1,1)"><g><path fill="none" stroke="none"/><text fill="#000000" stroke="none" font-family="Arial" font-size="13px" font-style="normal" font-weight="bold" text-decoration="none" x="816.05322265625" y="270.5">Modify point's coordinates</text></g></g><g transform="translate(-22,-70) scale(1,1)"><path fill="#C0C0C0" stroke="none" d="M 759 590.5 C 759 568.6847504 789.220776 551 826.5 551 C 863.779224 551 894 568.6847504 894 590.5 C 894 612.3152496 863.779224 630 826.5 630 C 789.220776 630 759 612.3152496 759 590.5 Z" opacity="0.2"/></g><g transform="translate(-22,-70) scale(1,1)"><path fill="#ffffff" stroke="none" d="M 752 583.5 C 752 561.6847504 782.220776 544 819.5 544 C 856.779224 544 887 561.6847504 887 583.5 C 887 605.3152496 856.779224 623 819.5 623 C 782.220776 623 752 605.3152496 752 583.5 Z"/></g><g transform="translate(-22,-70) scale(1,1)"><path fill="none" stroke="#000000" d="M 752 583.5 C 752 561.6847504 782.220776 544 819.5 544 C 856.779224 544 887 561.6847504 887 583.5 C 887 605.3152496 856.779224 623 819.5 623 C 782.220776 623 752 605.3152496 752 583.5 Z" stroke-miterlimit="10"/></g><g transform="translate(-22,-70) scale(1,1)"><g><path fill="none" stroke="none"/><text fill="#000000" stroke="none" font-family="Arial" font-size="13px" font-style="normal" font-weight="bold" text-decoration="none" x="779.02734375" y="590.5">Add a request</text></g></g><g transform="translate(-22,-70) scale(1,1)"><path fill="#ffffff" stroke="none" d="M 55.39090909090909 378 C 55.39090909090909 364.19288 66.1849155490909 353 79.5 353 C 92.8150844509091 353 103.60909090909091 364.19288 103.60909090909091 378 C 103.60909090909091 391.80712 92.8150844509091 403 79.5 403 C 66.1849155490909 403 55.39090909090909 391.80712 55.39090909090909 378 Z"/></g><g transform="translate(-22,-70) scale(1,1)"><path fill="none" stroke="#000000" d="M 55.39090909090909 378 C 55.39090909090909 364.19288 66.1849155490909 353 79.5 353 C 92.8150844509091 353 103.60909090909091 364.19288 103.60909090909091 378 C 103.60909090909091 391.80712 92.8150844509091 403 79.5 403 C 66.1849155490909 403 55.39090909090909 391.80712 55.39090909090909 378 Z" stroke-miterlimit="10"/></g><g transform="translate(-22,-70) scale(1,1)"><path fill="none" stroke="#000000" d="M 79.5 403 L 79.5 451" stroke-miterlimit="10"/></g><g transform="translate(-22,-70) scale(1,1)"><path fill="none" stroke="#000000" d="M 53.972727272727276 421 L 105.02727272727273 421" stroke-miterlimit="10"/></g><g transform="translate(-22,-70) scale(1,1)"><path fill="none" stroke="#000000" d="M 79.5 451 L 44.04545454545455 501" stroke-miterlimit="10"/></g><g transform="translate(-22,-70) scale(1,1)"><path fill="none" stroke="#000000" d="M 79.5 451 L 114.95454545454545 501" stroke-miterlimit="10"/></g><g transform="translate(-22,-70) scale(1,1)"><g><path fill="none" stroke="none"/><text fill="#000000" stroke="none" font-family="Arial" font-size="13px" font-style="normal" font-weight="bold" text-decoration="none" x="65.7763671875" y="521.5">User</text></g></g><g transform="translate(-22,-70) scale(1,1)"><path fill="#ffffff" stroke="none" d="M 1160.6767272727272 368.64 C 1160.6767272727272 355.583987328 1170.8950533864727 345 1183.5 345 C 1196.1049466135273 345 1206.3232727272728 355.583987328 1206.3232727272728 368.64 C 1206.3232727272728 381.696012672 1196.1049466135273 392.28 1183.5 392.28 C 1170.8950533864727 392.28 1160.6767272727272 381.696012672 1160.6767272727272 368.64 Z"/></g><g transform="translate(-22,-70) scale(1,1)"><path fill="none" stroke="#000000" d="M 1160.6767272727272 368.64 C 1160.6767272727272 355.583987328 1170.8950533864727 345 1183.5 345 C 1196.1049466135273 345 1206.3232727272728 355.583987328 1206.3232727272728 368.64 C 1206.3232727272728 381.696012672 1196.1049466135273 392.28 1183.5 392.28 C 1170.8950533864727 392.28 1160.6767272727272 381.696012672 1160.6767272727272 368.64 Z" stroke-miterlimit="10"/></g><g transform="translate(-22,-70) scale(1,1)"><path fill="none" stroke="#000000" d="M 1183.5 392.28 L 1183.5 437.72" stroke-miterlimit="10"/></g><g transform="translate(-22,-70) scale(1,1)"><path fill="none" stroke="#000000" d="M 1159.3341818181818 409.32 L 1207.6658181818182 409.32" stroke-miterlimit="10"/></g><g transform="translate(-22,-70) scale(1,1)"><path fill="none" stroke="#000000" d="M 1183.5 437.72 L 1149.9363636363637 485" stroke-miterlimit="10"/></g><g transform="translate(-22,-70) scale(1,1)"><path fill="none" stroke="#000000" d="M 1183.5 437.72 L 1217.0636363636363 485" stroke-miterlimit="10"/></g><g transform="translate(-22,-70) scale(1,1)"><g><path fill="none" stroke="none"/><text fill="#000000" stroke="none" font-family="Arial" font-size="13px" font-style="normal" font-weight="bold" text-decoration="none" x="1150.635009765625" y="505.5">File system</text></g></g><g transform="translate(-22,-70) scale(1,1)"><path fill="none" stroke="#000000" d="M 320 343 L 322 256" stroke-miterlimit="10" stroke-dasharray="3"/></g><g transform="translate(-22,-70) scale(1,1)"><path fill="none" stroke="#000000" d="M 325.974842889985 266.2567355430437 L 322 256 L 317.5580311063362 266.0632456169828" stroke-miterlimit="10"/></g><g transform="translate(-22,-70) scale(1,1)"><g><path fill="none" stroke="none"/><text fill="#000000" stroke="none" font-family="Arial" font-size="13px" font-style="normal" font-weight="normal" text-decoration="none" x="263.5" y="304.5">«include»</text></g></g><g transform="translate(-22,-70) scale(1,1)"><path fill="none" stroke="#000000" d="M 347 495 L 326 400" stroke-miterlimit="10" stroke-dasharray="3"/></g><g transform="translate(-22,-70) scale(1,1)"><path fill="none" stroke="#000000" d="M 332.3038247502502 409.014532351605 L 326 400 L 324.08324027326813 410.83171418335894" stroke-miterlimit="10"/></g><g transform="translate(-22,-70) scale(1,1)"><g><path fill="none" stroke="none"/><text fill="#000000" stroke="none" font-family="Arial" font-size="13px" font-style="normal" font-weight="normal" text-decoration="none" x="278.5" y="459.5">«include»</text></g></g><g transform="translate(-22,-70) scale(1,1)"><path fill="none" stroke="#000000" d="M 528 416 L 409 495" stroke-miterlimit="10" stroke-dasharray="3"/></g><g transform="translate(-22,-70) scale(1,1)"><path fill="none" stroke="#000000" d="M 415.138571831664 485.87213410114384 L 409 495 L 419.79500164381295 492.88624989412773" stroke-miterlimit="10"/></g><g transform="translate(-22,-70) scale(1,1)"><g><path fill="none" stroke="none"/><text fill="#000000" stroke="none" font-family="Arial" font-size="13px" font-style="normal" font-weight="normal" text-decoration="none" x="456.5" y="485.5">«include»</text></g></g><g transform="translate(-22,-70) scale(1,1)"><path fill="none" stroke="#000000" d="M 629 224 L 600 335" stroke-miterlimit="10" stroke-dasharray="3"/></g><g transform="translate(-22,-70) scale(1,1)"><path fill="none" stroke="#000000" d="M 598.4960753356845 324.10329358915897 L 600 335 L 606.6416996671734 326.2314296757642" stroke-miterlimit="10"/></g><g transform="translate(-22,-70) scale(1,1)"><g><path fill="none" stroke="none"/><text fill="#000000" stroke="none" font-family="Arial" font-size="13px" font-style="normal" font-weight="normal" text-decoration="none" x="616.5" y="292.5">«extend»</text></g></g><g transform="translate(-22,-70) scale(1,1)"><path fill="none" stroke="#000000" d="M 780 304 L 684 340" stroke-miterlimit="10" stroke-dasharray="3"/></g><g transform="translate(-22,-70) scale(1,1)"><path fill="none" stroke="#000000" d="M 692.037548629421 332.49015232979445 L 684 340 L 694.9936693532607 340.37314092669993" stroke-miterlimit="10"/></g><g transform="translate(-22,-70) scale(1,1)"><g><path fill="none" stroke="none"/><text fill="#000000" stroke="none" font-family="Arial" font-size="13px" font-style="normal" font-weight="normal" text-decoration="none" x="715.5" y="339.5">«extend»</text></g></g><g transform="translate(-22,-70) scale(1,1)"><path fill="none" stroke="#000000" d="M 791 378 L 684 376" stroke-miterlimit="10" stroke-dasharray="3"/></g><g transform="translate(-22,-70) scale(1,1)"><path fill="none" stroke="#000000" d="M 694.2395688615092 371.9811407675296 L 684 376 L 694.0822311943137 380.39870596248574" stroke-miterlimit="10"/></g><g transform="translate(-22,-70) scale(1,1)"><g><path fill="none" stroke="none"/><text fill="#000000" stroke="none" font-family="Arial" font-size="13px" font-style="normal" font-weight="normal" text-decoration="none" x="711.5" y="395.5">«extend»</text></g></g><g transform="translate(-22,-70) scale(1,1)"><path fill="none" stroke="#000000" d="M 805 455 L 684 410" stroke-miterlimit="10" stroke-dasharray="3"/></g><g transform="translate(-22,-70) scale(1,1)"><path fill="none" stroke="#000000" d="M 694.9926138046028 409.5969593781552 L 684 410 L 692.0579445209995 417.48795900739935" stroke-miterlimit="10"/></g><g transform="translate(-22,-70) scale(1,1)"><g><path fill="none" stroke="none"/><text fill="#000000" stroke="none" font-family="Arial" font-size="13px" font-style="normal" font-weight="normal" text-decoration="none" x="703.5" y="452.5">«extend»</text></g></g><g transform="translate(-22,-70) scale(1,1)"><path fill="none" stroke="#000000" d="M 775 543 L 634 416" stroke-miterlimit="10" stroke-dasharray="3"/></g><g transform="translate(-22,-70) scale(1,1)"><path fill="none" stroke="#000000" d="M 644.3684374998196 419.67362270957904 L 634 416 L 638.7339489369671 425.92923599589557" stroke-miterlimit="10"/></g><g transform="translate(-22,-70) scale(1,1)"><g><path fill="none" stroke="none"/><text fill="#000000" stroke="none" font-family="Arial" font-size="13px" font-style="normal" font-weight="normal" text-decoration="none" x="647.5" y="492.5">«extend»</text></g></g><g transform="translate(-22,-70) scale(1,1)"><path fill="none" stroke="#000000" d="M 495 604 L 426 568" stroke-miterlimit="10" stroke-dasharray="3"/></g><g transform="translate(-22,-70) scale(1,1)"><path fill="none" stroke="#000000" d="M 436.95725334378835 568.9688132740829 L 426 568 L 433.06289370676416 576.4330025783793" stroke-miterlimit="10"/></g><g transform="translate(-22,-70) scale(1,1)"><g><path fill="none" stroke="none"/><text fill="#000000" stroke="none" font-family="Arial" font-size="13px" font-style="normal" font-weight="normal" text-decoration="none" x="418.5" y="618.5">«extend»</text></g></g><g transform="translate(-22,-70) scale(1,1)"><path fill="none" stroke="#000000" d="M 1183 343 L 1184 104 L 320 104 L 322 199" stroke-miterlimit="10"/></g><g transform="translate(-22,-70) scale(1,1)"><path fill="none" stroke="#000000" d="M 128 396 L 290 256" stroke-miterlimit="10"/></g><g transform="translate(-22,-70) scale(1,1)"><path fill="none" stroke="#000000" d="M 128 425 L 223 398" stroke-miterlimit="10"/></g><g transform="translate(-22,-70) scale(1,1)"><path fill="none" stroke="#000000" d="M 128 455 L 247 495" stroke-miterlimit="10"/></g><g transform="translate(-22,-70) scale(1,1)"><path fill="none" stroke="#000000" d="M 1183 343 L 1184 104 L 440 104 L 440 368 L 415 369" stroke-miterlimit="10"/></g></g></svg>